<svg width="336" height="100" viewBox="0 0 336 100" fill="none" xmlns="http://www.w3.org/2000/svg">
<path d="M39.7748 64.1785C41.1366 67.8454 43.0241 71.2948 45.378 74.4187C54.9139 72.0706 63.5851 67.0583 70.3793 59.967C68.8385 56.3706 66.7875 53.015 64.2894 50.0037C58.0799 57.5129 49.3806 62.5431 39.7748 64.1785Z" fill="#16AB03"/>
<path d="M45.3486 25.5811C43.0024 28.7085 41.1226 32.1601 39.7681 35.8276C49.3765 37.4619 58.0785 42.4926 64.2895 50.0037C66.7876 46.9924 68.8386 43.6368 70.3794 40.0404C63.5782 32.9415 54.896 27.9262 45.3486 25.5811Z" fill="#5E33BF"/>
<path d="M39.7748 64.1787C36.8077 56.2693 36.3981 47.628 38.6038 39.4734C38.9363 38.2325 39.3279 37.0177 39.768 35.8277C35.9141 35.1777 31.9867 35.0856 28.1066 35.5541C25.3613 44.9911 25.3595 55.0147 28.1013 64.4527C31.9854 64.9221 35.917 64.8299 39.7748 64.1787H39.7748Z" fill="black"/>
<path d="M103.58 63.0774C105.925 63.2006 108.245 62.5359 110.169 61.1891C112.093 59.8422 113.511 57.8906 114.199 55.6447H122.749C121.692 59.8952 119.216 63.6576 115.73 66.3099C112.245 68.9622 107.958 70.3454 103.58 70.231C100.893 70.315 98.2165 69.8505 95.7147 68.8657C93.2129 67.881 90.9381 66.3966 89.0291 64.5033C87.1202 62.6101 85.6171 60.3476 84.6118 57.854C83.6064 55.3604 83.1198 52.6881 83.1818 50.0002C83.1198 47.3123 83.6064 44.6399 84.6117 42.1463C85.6171 39.6527 87.1201 37.3902 89.0291 35.4969C90.938 33.6036 93.2129 32.1192 95.7146 31.1344C98.2164 30.1497 100.893 29.6851 103.58 29.7692C107.958 29.6547 112.245 31.038 115.731 33.6902C119.216 36.3425 121.692 40.105 122.749 44.3555H114.199C113.511 42.1096 112.093 40.1579 110.169 38.811C108.245 37.4642 105.925 36.7995 103.58 36.9227C96.2033 36.9227 91.2853 42.5113 91.2853 50.0002C91.2853 57.489 96.2033 63.0774 103.58 63.0774Z" fill="black"/>
<path d="M133.984 69.5603H126.775V30.4397H133.984V69.5603Z" fill="black"/>
<path d="M153.992 52.515C153.992 50.6708 152.539 49.497 149.745 49.497C147.021 49.6818 144.379 50.5051 142.032 51.9002L139.182 46.4234C142.493 44.4323 146.272 43.3526 150.136 43.2937C155.948 43.2937 161.258 45.9761 161.258 52.7385V69.5604H153.992V67.1571C153.124 68.1944 152.024 69.013 150.782 69.547C149.539 70.0809 148.188 70.3152 146.838 70.231C145.719 70.3055 144.597 70.155 143.537 69.7882C142.477 69.4215 141.502 68.8459 140.668 68.0957C139.834 67.3454 139.16 66.4356 138.684 65.4201C138.208 64.4046 137.94 63.304 137.897 62.1833C137.897 57.3212 141.473 54.3032 147.174 54.3032H152.204C153.433 54.3032 153.992 53.7444 153.992 52.7944V52.515ZM153.992 60.395V58.5508C153.344 59.012 152.545 59.2115 151.756 59.1095H149.018C146.727 59.1095 145.386 60.1154 145.386 61.9039C145.386 63.6363 146.783 64.9218 149.018 64.9218C149.652 65.0008 150.296 64.9417 150.905 64.7485C151.514 64.5553 152.074 64.2326 152.546 63.8026C153.019 63.3725 153.393 62.8453 153.642 62.2571C153.892 61.6689 154.011 61.0336 153.992 60.395Z" fill="black"/>
<path d="M181.266 51.1178H178.192C174.503 51.1178 172.827 52.8502 172.827 57.3211V69.5603H165.561V43.9643H172.603V48.044C173.097 46.6958 174.008 45.5405 175.205 44.7463C176.401 43.9522 177.819 43.5607 179.254 43.629C179.931 43.6204 180.607 43.6955 181.266 43.8525V51.1178Z" fill="black"/>
<path d="M195.517 69.5603H188.252V50.1116H184.675V43.9642H195.517V69.5603ZM191.549 30.4397C192.166 30.4387 192.777 30.5594 193.347 30.7949C193.917 31.0305 194.435 31.3762 194.871 31.8124C195.307 32.2485 195.653 32.7664 195.888 33.3364C196.124 33.9065 196.244 34.5174 196.243 35.1342C196.236 36.3671 195.741 37.547 194.867 38.4162C193.993 39.2855 192.81 39.7734 191.577 39.7734C190.344 39.7734 189.161 39.2855 188.287 38.4162C187.412 37.547 186.918 36.3671 186.91 35.1342C186.905 33.8972 187.391 32.7086 188.26 31.8287C189.129 30.9488 190.312 30.4494 191.549 30.4397Z" fill="black"/>
<path d="M211.837 61.7362L217.649 43.9644H225.305L216.196 69.5604H207.198L198.48 43.9644H206.36L211.837 61.7362Z" fill="black"/>
<path d="M241.737 52.515C241.737 50.6708 240.284 49.497 237.489 49.497C234.765 49.6818 232.123 50.5051 229.777 51.9002L226.927 46.4234C230.238 44.4323 234.017 43.3525 237.88 43.2937C243.693 43.2937 249.002 45.9761 249.002 52.7385V69.5604H241.737V67.1571C240.869 68.1943 239.769 69.0129 238.526 69.5468C237.284 70.0808 235.933 70.3151 234.583 70.231C233.464 70.3056 232.342 70.155 231.282 69.7883C230.222 69.4216 229.246 68.8461 228.412 68.0958C227.579 67.3455 226.904 66.4357 226.428 65.4202C225.952 64.4046 225.685 63.304 225.641 62.1833C225.641 57.3212 229.218 54.3032 234.919 54.3032H239.948C241.178 54.3032 241.737 53.7444 241.737 52.7944V52.515ZM241.737 60.395V58.5508C241.088 59.0119 240.29 59.2114 239.501 59.1095H236.763C234.471 59.1095 233.13 60.1154 233.13 61.9039C233.13 63.6363 234.527 64.9218 236.763 64.9218C237.397 65.0008 238.04 64.9417 238.649 64.7485C239.258 64.5553 239.819 64.2326 240.291 63.8025C240.764 63.3725 241.137 62.8453 241.387 62.2571C241.637 61.6689 241.756 61.0336 241.737 60.395Z" fill="black"/>
<path d="M263.031 34.24V43.9642H268.563V50.1116H263.031V61.6802C263.031 63.301 264.316 63.5246 265.433 63.5246C267.278 63.5246 268.786 63.3569 268.786 63.3569V69.5603C268.786 69.5603 265.266 69.8956 263.142 69.8956C259.509 69.8956 255.765 69.2808 255.765 64.1393V50.1116H251.741V43.9642H255.765V34.24H263.031Z" fill="black"/>
<path d="M297.569 58.8859H278.512C278.699 60.0877 279.242 61.2058 280.071 62.0954C280.901 62.9851 281.978 63.6055 283.164 63.8764C284.349 64.1472 285.589 64.0561 286.722 63.6148C287.856 63.1735 288.831 62.4023 289.521 61.4009L297.066 62.1833C295.779 65.0188 293.566 67.3324 290.791 68.7439C288.016 70.1553 284.843 70.5807 281.793 69.95C278.744 69.3194 276 67.6703 274.012 65.2737C272.025 62.8771 270.911 59.8755 270.855 56.7623C270.785 54.9891 271.08 53.2205 271.722 51.566C272.364 49.9115 273.338 48.4063 274.585 47.1437C275.832 45.881 277.325 44.8878 278.971 44.2256C280.618 43.5634 282.382 43.2462 284.156 43.2937C291.198 43.2937 297.569 47.8764 297.569 58.6067L297.569 58.8859ZM278.344 54.024H289.801C289.592 52.6886 288.904 51.4749 287.865 50.6106C286.826 49.7463 285.507 49.2907 284.156 49.3294C282.785 49.2827 281.443 49.7315 280.375 50.5936C279.308 51.4558 278.586 52.6736 278.344 54.024Z" fill="black"/>
<path d="M301.506 32.284H299.547V37.4333H297.51V32.284H295.551V30.4749H301.506V32.284Z" fill="black"/>
<path d="M305.482 35.9427L304.587 33.4575V37.4333H302.629V30.4749H305.316L306.332 33.3778L307.417 30.4749H309.945V37.4333H307.947V33.4575L307.052 35.9427H305.482Z" fill="black"/>
</svg>
